<?xml version="1.0" encoding="UTF-8"?>
<svg width="72px" height="69px" viewBox="0 0 72 69" version="1.1" xmlns="http://www.w3.org/2000/svg" xmlns:xlink="http://www.w3.org/1999/xlink">
    <title>Shape</title>
    <g id="Page-1" stroke="none" stroke-width="1" fill="none" fill-rule="evenodd">
        <g id="noun_complaint_2048406" fill="#ff3b30" fill-rule="nonzero">
            <g id="Group">
                <path d="M58,0.5 L14,0.5 C6.2718968,0.509367074 0.0093670742,6.7718968 -1.77635684e-15,14.5 L-1.77635684e-15,42.5 C0.0093670742,50.2281032 6.2718968,56.4906329 14,56.5 L25.0625,56.5 L34.4648,67.7813 C34.8446017,68.2365742 35.4069055,68.4997626 35.9998,68.4997626 C36.5926945,68.4997626 37.1549983,68.2365742 37.5348,67.7813 L46.9375,56.5 L58,56.5 C65.728126,56.4906879 71.9906879,50.228126 72,42.5 L72,14.5 C71.9906329,6.7718968 65.7281032,0.509367074 58,0.5 Z M58,4.5 C63.5204485,4.50578736 67.9942126,8.97955148 68,14.5 L68,42.5 C67.9942126,48.0204485 63.5204485,52.4942126 58,52.5 L46,52.5 C45.4069432,52.4998574 44.8444775,52.7632109 44.4648,53.2188 L36,63.375 L27.5352,53.2188 C27.1555486,52.763177 26.5930661,52.4998156 26,52.5 L14,52.5 C8.47955148,52.4942126 4.00578736,48.0204485 4,42.5 L4,14.5 C4.00578736,8.97955148 8.47955148,4.50578736 14,4.5 L58,4.5 Z M36,36.5 C33.790861,36.5 32,38.290861 32,40.5 C32,42.709139 33.790861,44.5 36,44.5 C38.209139,44.5 40,42.709139 40,40.5 C39.9977951,38.291775 38.208225,36.5022049 36,36.5 Z M36,12.5 C33.791775,12.5022049 32.0022049,14.291775 32,16.5 L32,16.5 L32,28.5 L32.0048953,28.6996403 C32.1089211,30.8160315 33.8578046,32.5 36,32.5 C38.209139,32.5 40,30.709139 40,28.5 L40,28.5 L40,16.5 L39.9949138,16.3004437 C39.8889519,14.1849575 38.1413091,12.5021381 36,12.5 Z" id="Shape"></path>
            </g>
        </g>
    </g>
</svg>