<svg xmlns="http://www.w3.org/2000/svg" width="30.031" height="30" viewBox="0 0 30.031 30">
  <metadata><?xpacket begin="﻿" id="W5M0MpCehiHzreSzNTczkc9d"?>
<x:xmpmeta xmlns:x="adobe:ns:meta/" x:xmptk="Adobe XMP Core 5.6-c142 79.160924, 2017/07/13-01:06:39        ">
   <rdf:RDF xmlns:rdf="http://www.w3.org/1999/02/22-rdf-syntax-ns#">
      <rdf:Description rdf:about=""/>
   </rdf:RDF>
</x:xmpmeta>
                                                                                                    
                                                                                                    
                                                                                                    
                                                                                                    
                                                                                                    
                                                                                                    
                                                                                                    
                                                                                                    
                                                                                                    
                                                                                                    
                                                                                                    
                                                                                                    
                                                                                                    
                                                                                                    
                                                                                                    
                                                                                                    
                                                                                                    
                                                                                                    
                                                                                                    
                                                                                                    
                           
<?xpacket end="w"?></metadata>
<defs>
    <style>
      .cls-1 {
        fill: #fff;
        fill-rule: evenodd;
      }
    </style>
  </defs>
  <path id="vid-close" class="cls-1" d="M222.228,726.392l14.3-14.161a0.861,0.861,0,0,1,1.213,0,0.841,0.841,0,0,1,0,1.2L224.052,726.99l13.693,13.557a0.841,0.841,0,0,1,0,1.2,0.868,0.868,0,0,1-.6.251,0.845,0.845,0,0,1-.6-0.251l-14.3-14.162A0.839,0.839,0,0,1,222.228,726.392Zm1.513,0-14.276-14.161a0.859,0.859,0,0,0-1.211,0,0.843,0.843,0,0,0,0,1.2l13.667,13.557-13.667,13.557a0.843,0.843,0,0,0,0,1.2,0.868,0.868,0,0,0,.6.251,0.842,0.842,0,0,0,.6-0.251l14.276-14.162A0.84,0.84,0,0,0,223.741,726.392Z" transform="translate(-208 -712)"/>
</svg>
